<svg width="20" height="20" viewBox="0 0 20 20" fill="none" xmlns="http://www.w3.org/2000/svg">
<path d="M10.0688 5.30859C7.31875 5.30859 5.12734 7.54297 5.12734 10.25C5.12734 13 7.31875 15.1914 10.0688 15.1914C12.7758 15.1914 15.0102 13 15.0102 10.25C15.0102 7.54297 12.7758 5.30859 10.0688 5.30859ZM10.0688 13.4727C8.30703 13.4727 6.84609 12.0547 6.84609 10.25C6.84609 8.48828 8.26406 7.07031 10.0688 7.07031C11.8305 7.07031 13.2484 8.48828 13.2484 10.25C13.2484 12.0547 11.8305 13.4727 10.0688 13.4727ZM16.3422 5.13672C16.3422 4.49219 15.8266 3.97656 15.182 3.97656C14.5375 3.97656 14.0219 4.49219 14.0219 5.13672C14.0219 5.78125 14.5375 6.29688 15.182 6.29688C15.8266 6.29688 16.3422 5.78125 16.3422 5.13672ZM19.6078 6.29688C19.5219 4.75 19.1781 3.375 18.0609 2.25781C16.9438 1.14062 15.5688 0.796875 14.0219 0.710938C12.432 0.625 7.6625 0.625 6.07266 0.710938C4.52578 0.796875 3.19375 1.14062 2.03359 2.25781C0.916407 3.375 0.572657 4.75 0.486719 6.29688C0.400782 7.88672 0.400782 12.6562 0.486719 14.2461C0.572657 15.793 0.916407 17.125 2.03359 18.2852C3.19375 19.4023 4.52578 19.7461 6.07266 19.832C7.6625 19.918 12.432 19.918 14.0219 19.832C15.5688 19.7461 16.9438 19.4023 18.0609 18.2852C19.1781 17.125 19.5219 15.793 19.6078 14.2461C19.6938 12.6562 19.6938 7.88672 19.6078 6.29688ZM17.5453 15.9219C17.2445 16.7812 16.557 17.4258 15.7406 17.7695C14.4516 18.2852 11.4438 18.1562 10.0688 18.1562C8.65078 18.1562 5.64297 18.2852 4.39688 17.7695C3.5375 17.4258 2.89297 16.7812 2.54922 15.9219C2.03359 14.6758 2.1625 11.668 2.1625 10.25C2.1625 8.875 2.03359 5.86719 2.54922 4.57812C2.89297 3.76172 3.5375 3.11719 4.39688 2.77344C5.64297 2.25781 8.65078 2.38672 10.0688 2.38672C11.4438 2.38672 14.4516 2.25781 15.7406 2.77344C16.557 3.07422 17.2016 3.76172 17.5453 4.57812C18.0609 5.86719 17.932 8.875 17.932 10.25C17.932 11.668 18.0609 14.6758 17.5453 15.9219Z" fill="#08203A"/>
</svg>
