<svg width="7" height="10" viewBox="0 0 7 10" fill="none" xmlns="http://www.w3.org/2000/svg">
<path d="M3.94022 0.423944C4.37047 -0.0151728 4.86277 -0.113165 5.41712 0.129967C5.97237 0.372174 6.25 0.805282 6.25 1.42929V8.57071C6.25 9.19472 5.97237 9.62783 5.41712 9.87003C4.86277 10.1132 4.37047 10.0152 3.94022 9.57606L0.407609 5.97068C0.27174 5.83201 0.169838 5.68179 0.101903 5.52001C0.0339686 5.35823 1.49271e-07 5.18489 1.49271e-07 5C1.49271e-07 4.81511 0.0339686 4.64177 0.101903 4.47999C0.169838 4.31821 0.27174 4.16799 0.407609 4.02932L3.94022 0.423944Z" fill="#E70280"/>
</svg>
