<svg width="20" height="20" viewBox="0 0 20 20" fill="none" xmlns="http://www.w3.org/2000/svg">
<path d="M17.0413 17.0415H14.0778V12.4005C14.0778 11.2937 14.0581 9.86955 12.5363 9.86955C10.993 9.86955 10.7564 11.0749 10.7564 12.3206V17.0415H7.79382V7.4973H10.6391V8.8012H10.6786C11.2591 7.80972 12.3373 7.2174 13.4854 7.25978C16.4894 7.25978 17.0423 9.23583 17.0423 11.8052L17.0413 17.0415ZM4.44981 6.19242C3.49973 6.19242 2.73001 5.42269 2.73001 4.47261C2.73001 3.52253 3.49973 2.75281 4.44981 2.75281C5.39989 2.75281 6.16962 3.52253 6.16962 4.47261C6.16962 5.42269 5.39989 6.19242 4.44981 6.19242ZM5.93111 17.0415H2.96457V7.4973H5.93111V17.0415ZM18.5187 0.00112018H1.47539C0.670182 -0.00774987 0.00985562 0.637793 0 1.443V18.5563C0.00985562 19.3625 0.670182 20.008 1.47539 19.9991H18.5187C19.3259 20.009 19.9892 19.3635 20 18.5563V1.44201C19.9882 0.634836 19.3249 -0.0107066 18.5187 0.000134574" fill="black"/>
</svg>
