<svg width="16" height="15" viewBox="0 0 16 15" fill="none" xmlns="http://www.w3.org/2000/svg">
<path d="M12.6667 0.333313H3.33333C2.4496 0.334372 1.60237 0.685901 0.97748 1.31079C0.352588 1.93568 0.00105857 2.78292 0 3.66665L0 11.6666C0.00105857 12.5504 0.352588 13.3976 0.97748 14.0225C1.60237 14.6474 2.4496 14.9989 3.33333 15H12.6667C13.5504 14.9989 14.3976 14.6474 15.0225 14.0225C15.6474 13.3976 15.9989 12.5504 16 11.6666V3.66665C15.9989 2.78292 15.6474 1.93568 15.0225 1.31079C14.3976 0.685901 13.5504 0.334372 12.6667 0.333313V0.333313ZM3.33333 1.66665H12.6667C13.0659 1.66743 13.4557 1.78766 13.786 2.01185C14.1163 2.23604 14.3719 2.55394 14.52 2.92465L9.41467 8.03065C9.03895 8.40486 8.53028 8.61496 8 8.61496C7.46972 8.61496 6.96105 8.40486 6.58533 8.03065L1.48 2.92465C1.6281 2.55394 1.88374 2.23604 2.21403 2.01185C2.54432 1.78766 2.93414 1.66743 3.33333 1.66665V1.66665ZM12.6667 13.6666H3.33333C2.8029 13.6666 2.29419 13.4559 1.91912 13.0809C1.54405 12.7058 1.33333 12.1971 1.33333 11.6666V4.66665L5.64267 8.97331C6.26842 9.59748 7.11617 9.94801 8 9.94801C8.88383 9.94801 9.73158 9.59748 10.3573 8.97331L14.6667 4.66665V11.6666C14.6667 12.1971 14.456 12.7058 14.0809 13.0809C13.7058 13.4559 13.1971 13.6666 12.6667 13.6666Z" fill="black"/>
</svg>
