<svg width="17" height="16" viewBox="0 0 17 16" fill="none" xmlns="http://www.w3.org/2000/svg">
<path d="M4.6 6.5C4.0375 6.5 3.6 6.96875 3.6 7.5C3.6 8.0625 4.0375 8.5 4.6 8.5C5.13125 8.5 5.6 8.0625 5.6 7.5C5.6 6.96875 5.13125 6.5 4.6 6.5ZM8.1 6.5C7.5375 6.5 7.1 6.96875 7.1 7.5C7.1 8.0625 7.5375 8.5 8.1 8.5C8.63125 8.5 9.1 8.0625 9.1 7.5C9.1 6.96875 8.63125 6.5 8.1 6.5ZM11.6 6.5C11.0375 6.5 10.6 6.96875 10.6 7.5C10.6 8.0625 11.0375 8.5 11.6 8.5C12.1313 8.5 12.6 8.0625 12.6 7.5C12.6 6.96875 12.1313 6.5 11.6 6.5ZM8.1 1C3.6625 1 0.1 3.9375 0.1 7.5C0.1 9 0.69375 10.375 1.725 11.4688C1.2875 12.6875 0.31875 13.75 0.2875 13.75C0.0687504 13.9688 0.0375004 14.2812 0.13125 14.5625C0.25625 14.8438 0.5375 15 0.85 15C2.75625 15 4.2875 14.2188 5.19375 13.5625C6.1 13.8438 7.06875 14 8.1 14C12.5063 14 16.1 11.0938 16.1 7.5C16.1 3.9375 12.5063 1 8.1 1ZM8.1 12.5C7.25625 12.5 6.4125 12.375 5.63125 12.125L4.9125 11.9062L4.31875 12.3438C3.88125 12.6562 3.25625 13 2.50625 13.25C2.75625 12.875 2.975 12.4375 3.13125 12L3.475 11.125L2.81875 10.4375C2.25625 9.84375 1.6 8.84375 1.6 7.5C1.6 4.75 4.50625 2.5 8.1 2.5C11.6625 2.5 14.6 4.75 14.6 7.5C14.6 10.2812 11.6625 12.5 8.1 12.5Z" fill="white"/>
</svg>
