<svg width="21" height="19" viewBox="0 0 21 19" fill="none" xmlns="http://www.w3.org/2000/svg">
<path d="M19.3125 6.48438L14.1797 5.74609L11.8594 1.07031C11.4727 0.261719 10.2773 0.226562 9.85547 1.07031L7.57031 5.74609L2.40234 6.48438C1.48828 6.625 1.13672 7.75 1.80469 8.41797L5.49609 12.0391L4.61719 17.1367C4.47656 18.0508 5.46094 18.7539 6.26953 18.332L10.875 15.9062L15.4453 18.332C16.2539 18.7539 17.2383 18.0508 17.0977 17.1367L16.2188 12.0391L19.9102 8.41797C20.5781 7.75 20.2266 6.625 19.3125 6.48438ZM14.3906 11.4414L15.2344 16.293L10.875 14.0078L6.48047 16.293L7.32422 11.4414L3.77344 7.99609L8.66016 7.29297L10.875 2.86328L13.0547 7.29297L17.9414 7.99609L14.3906 11.4414Z" fill="#FFAC0C"/>
</svg>
