<svg width="20" height="18" viewBox="0 0 20 18" fill="none" xmlns="http://www.w3.org/2000/svg">
<path d="M17.9525 4.91999C17.9642 5.09583 17.9642 5.27249 17.9642 5.44999C17.9642 10.8725 13.8358 17.125 6.28917 17.125V17.1217C4.06 17.125 1.87667 16.4867 0 15.2825C0.324167 15.3217 0.65 15.3408 0.976667 15.3417C2.825 15.3433 4.62 14.7233 6.0725 13.5817C4.31667 13.5483 2.77667 12.4033 2.23917 10.7317C2.85417 10.85 3.4875 10.8258 4.09167 10.6617C2.17667 10.275 0.8 8.59249 0.8 6.63916C0.8 6.62166 0.8 6.60416 0.8 6.58749C1.37083 6.90583 2.00917 7.08166 2.6625 7.10083C0.859167 5.89666 0.3025 3.49833 1.39167 1.62333C3.475 4.18666 6.54917 5.74499 9.84833 5.91083C9.5175 4.48583 9.97 2.99249 11.035 1.98999C12.6875 0.435827 15.2867 0.515827 16.8408 2.16833C17.76 1.98749 18.6408 1.64999 19.4467 1.17249C19.14 2.12249 18.4992 2.92916 17.6425 3.44249C18.4567 3.34499 19.2508 3.12749 20 2.79583C19.4492 3.61999 18.7558 4.33916 17.9525 4.91999Z" fill="black"/>
</svg>
