<svg width="23" height="23" viewBox="0 0 23 23" fill="none" xmlns="http://www.w3.org/2000/svg">
<path d="M19.8227 6.78125C20.682 6.13672 21.4555 5.36328 22.057 4.46094C21.2836 4.80469 20.3813 5.0625 19.4789 5.14844C20.4242 4.58984 21.1117 3.73047 21.4555 2.65625C20.5961 3.17188 19.6078 3.55859 18.6195 3.77344C17.7602 2.87109 16.6 2.35547 15.3109 2.35547C12.8188 2.35547 10.7992 4.375 10.7992 6.86719C10.7992 7.21094 10.8422 7.55469 10.9281 7.89844C7.18984 7.68359 3.83828 5.87891 1.60391 3.17188C1.21719 3.81641 1.00234 4.58984 1.00234 5.44922C1.00234 6.99609 1.77578 8.37109 3.02188 9.1875C2.29141 9.14453 1.56094 8.97266 0.959375 8.62891V8.67188C0.959375 10.8633 2.50625 12.668 4.56875 13.0977C4.225 13.1836 3.79531 13.2695 3.40859 13.2695C3.10781 13.2695 2.85 13.2266 2.54922 13.1836C3.10781 14.9883 4.78359 16.2773 6.76016 16.3203C5.21328 17.5234 3.27969 18.2539 1.17422 18.2539C0.7875 18.2539 0.44375 18.2109 0.1 18.168C2.07656 19.457 4.43984 20.1875 7.01797 20.1875C15.3109 20.1875 19.8227 13.3555 19.8227 7.38281C19.8227 7.16797 19.8227 6.99609 19.8227 6.78125Z" fill="#08203A"/>
</svg>
